<mxfile host="app.diagrams.net" modified="2021-04-12T22:08:27.758Z" agent="5.0 (Windows NT 10.0; Win64; x64) AppleWebKit/537.36 (KHTML, like Gecko) Chrome/89.0.4389.114 Safari/537.36" etag="8xfHJ3ztv_ML-L3mLEab" version="14.5.10" type="github">
  <diagram id="07fea595-8f29-1299-0266-81d95cde20df" name="Page-1">
    <mxGraphModel dx="5182" dy="2379" grid="1" gridSize="10" guides="1" tooltips="1" connect="1" arrows="1" fold="1" page="1" pageScale="1" pageWidth="1169" pageHeight="827" background="#ffffff" math="0" shadow="0">
      <root>
        <mxCell id="0" />
        <mxCell id="1" parent="0" />
        <mxCell id="698" value="" style="rounded=0;whiteSpace=wrap;html=1;shadow=0;labelBackgroundColor=none;strokeColor=none;strokeWidth=3;fontSize=60;fontColor=#2F5B7C;align=left;fillColor=#C75412;" parent="1" vertex="1">
          <mxGeometry x="-2210" y="-190" width="2100" height="1640" as="geometry" />
        </mxCell>
        <mxCell id="699" value="&lt;div style=&quot;text-align: center ; font-size: 26px&quot;&gt;&lt;font style=&quot;font-size: 26px&quot; color=&quot;#4fcaff&quot; face=&quot;Comic Sans MS&quot;&gt;&lt;b&gt;Customer Relationships&lt;/b&gt;&lt;/font&gt;&lt;/div&gt;&lt;div&gt;&lt;ul&gt;&lt;li&gt;&lt;font color=&quot;#2871a8&quot; face=&quot;Comic Sans MS&quot;&gt;Como será feito o contato com o cliente?&lt;/font&gt;&lt;/li&gt;&lt;li&gt;&lt;font color=&quot;#2871a8&quot; face=&quot;Comic Sans MS&quot;&gt;Como será o suporte que o cliente espera ter?&lt;/font&gt;&lt;/li&gt;&lt;li&gt;&lt;font color=&quot;#2871a8&quot; face=&quot;Comic Sans MS&quot;&gt;Como isso será integrado com o restante do modelo de negócio?&lt;/font&gt;&lt;/li&gt;&lt;/ul&gt;&lt;/div&gt;&lt;div&gt;&lt;br&gt;&lt;/div&gt;&lt;div&gt;&lt;br&gt;&lt;/div&gt;&lt;b&gt;&lt;/b&gt;" style="rounded=0;whiteSpace=wrap;html=1;shadow=0;labelBackgroundColor=none;strokeColor=#e8edf0;strokeWidth=5;fontSize=12;fontColor=#2F5B7C;align=left;verticalAlign=top;spacing=30;fillColor=#FFEB6B;" parent="1" vertex="1">
          <mxGeometry x="-950" y="220" width="420" height="450" as="geometry" />
        </mxCell>
        <mxCell id="700" value="&lt;div style=&quot;text-align: center&quot;&gt;&lt;b style=&quot;font-size: 26px ; color: rgb(255 , 224 , 25) ; font-family: &amp;#34;comic sans ms&amp;#34;&quot;&gt;Principais Parcerias&lt;/b&gt;&lt;br&gt;&lt;/div&gt;&lt;font style=&quot;font-size: 12px&quot;&gt;&lt;ul&gt;&lt;li&gt;&lt;font style=&quot;font-size: 12px&quot; color=&quot;#ffff38&quot;&gt;&lt;font style=&quot;font-family: &amp;#34;comic sans ms&amp;#34;&quot;&gt;Quem são nossos parceiros principais&lt;/font&gt;&lt;font style=&quot;font-family: &amp;#34;comic sans ms&amp;#34;&quot;&gt;?&lt;/font&gt;&lt;/font&gt;&lt;/li&gt;&lt;li&gt;&lt;font style=&quot;font-size: 12px&quot; color=&quot;#ffff38&quot;&gt;&lt;span style=&quot;font-family: &amp;#34;comic sans ms&amp;#34;&quot;&gt;Quem são nossos fornecedores principais?&lt;/span&gt;&lt;/font&gt;&lt;/li&gt;&lt;/ul&gt;&lt;font style=&quot;font-size: 12px&quot;&gt;&lt;br style=&quot;font-size: 12px&quot;&gt;&lt;/font&gt;&lt;br style=&quot;font-size: 12px&quot;&gt;&lt;/font&gt;&lt;br&gt;&lt;div style=&quot;font-size: 12px&quot;&gt;&lt;br style=&quot;font-size: 12px&quot;&gt;&lt;/div&gt;" style="rounded=0;whiteSpace=wrap;html=1;shadow=0;labelBackgroundColor=none;strokeWidth=5;fontSize=12;fontColor=#2F5B7C;align=left;verticalAlign=top;spacing=30;fillColor=#80A6FF;strokeColor=#E8EDF0;" parent="1" vertex="1">
          <mxGeometry x="-2210" y="220" width="420" height="900" as="geometry" />
        </mxCell>
        <mxCell id="701" value="&lt;div style=&quot;text-align: center&quot;&gt;&lt;span style=&quot;font-size: 26px ; font-family: &amp;#34;comic sans ms&amp;#34;&quot;&gt;&lt;font color=&quot;#ffe019&quot;&gt;&lt;b&gt;Atividades Principais&lt;/b&gt;&lt;/font&gt;&lt;/span&gt;&lt;/div&gt;&lt;font&gt;&lt;ul&gt;&lt;li&gt;&lt;font&gt;&lt;span style=&quot;color: rgb(255 , 255 , 56)&quot;&gt;Quais atividades principais requer a proposta de valor?&lt;/span&gt;&lt;/font&gt;&lt;/li&gt;&lt;/ul&gt;&lt;div&gt;&lt;br&gt;&lt;/div&gt;&lt;/font&gt;&lt;div&gt;&lt;br&gt;&lt;/div&gt;&lt;div&gt;&lt;br&gt;&lt;/div&gt;&lt;div&gt;&lt;br&gt;&lt;/div&gt;" style="rounded=0;whiteSpace=wrap;html=1;shadow=0;labelBackgroundColor=none;strokeColor=#e8edf0;strokeWidth=5;fontSize=12;fontColor=#2F5B7C;align=left;verticalAlign=top;spacing=30;fillColor=#80A6FF;perimeterSpacing=0;" parent="1" vertex="1">
          <mxGeometry x="-1790" y="220" width="420" height="450" as="geometry" />
        </mxCell>
        <mxCell id="702" value="&lt;div style=&quot;text-align: center&quot;&gt;&lt;font style=&quot;font-size: 26px&quot; face=&quot;Comic Sans MS&quot; color=&quot;#ffe019&quot;&gt;&lt;b&gt;Recursos Chaves&lt;/b&gt;&lt;/font&gt;&lt;/div&gt;&lt;div&gt;&lt;ul&gt;&lt;li&gt;&lt;font face=&quot;Comic Sans MS&quot; color=&quot;#ffff38&quot;&gt;Quais recursos chaves nossa proposta de valor requer?&lt;/font&gt;&lt;/li&gt;&lt;/ul&gt;&lt;/div&gt;&lt;div&gt;&lt;br&gt;&lt;/div&gt;&lt;div&gt;&lt;br&gt;&lt;/div&gt;&lt;div style=&quot;font-size: 10px&quot;&gt;&lt;br&gt;&lt;/div&gt;" style="rounded=0;whiteSpace=wrap;html=1;shadow=0;labelBackgroundColor=none;strokeColor=#e8edf0;strokeWidth=5;fontSize=12;fontColor=#2F5B7C;align=left;verticalAlign=top;spacing=30;fillColor=#80A6FF;" parent="1" vertex="1">
          <mxGeometry x="-1790" y="670" width="420" height="450" as="geometry" />
        </mxCell>
        <mxCell id="703" value="&lt;div style=&quot;text-align: center ; font-size: 26px&quot;&gt;&lt;font style=&quot;font-size: 26px&quot; face=&quot;Comic Sans MS&quot;&gt;&lt;b&gt;&lt;font color=&quot;#fffaf2&quot;&gt;Proposta de valor&lt;/font&gt;&lt;br&gt;&lt;/b&gt;&lt;/font&gt;&lt;/div&gt;&lt;div&gt;&lt;ul&gt;&lt;li&gt;&lt;font face=&quot;Comic Sans MS&quot; color=&quot;#fafff7&quot;&gt;Quais valores nós entregamos ao cliente?&lt;/font&gt;&lt;/li&gt;&lt;li&gt;&lt;font face=&quot;Comic Sans MS&quot; color=&quot;#fafff7&quot;&gt;Qual dos problemas de nossos clientes estamos resolvendo?&lt;/font&gt;&lt;/li&gt;&lt;li&gt;&lt;font face=&quot;Comic Sans MS&quot; color=&quot;#fafff7&quot;&gt;Qual necessidade do consumidor estamos satisfazendo?&lt;/font&gt;&lt;/li&gt;&lt;/ul&gt;&lt;/div&gt;&lt;div&gt;&lt;br&gt;&lt;/div&gt;&lt;br&gt;&lt;div style=&quot;font-size: 10px&quot;&gt;&lt;br&gt;&lt;/div&gt;" style="rounded=0;whiteSpace=wrap;html=1;shadow=0;labelBackgroundColor=none;strokeColor=#e8edf0;strokeWidth=5;fontSize=12;fontColor=#2F5B7C;align=left;verticalAlign=top;spacing=30;fillColor=#FFA680;" parent="1" vertex="1">
          <mxGeometry x="-1370" y="220" width="420" height="900" as="geometry" />
        </mxCell>
        <mxCell id="704" value="&lt;div style=&quot;text-align: center&quot;&gt;&lt;font style=&quot;font-size: 26px&quot; face=&quot;Comic Sans MS&quot; color=&quot;#4fcaff&quot;&gt;&lt;b&gt;Customers&lt;/b&gt;&lt;/font&gt;&lt;/div&gt;&lt;div&gt;&lt;ul&gt;&lt;li&gt;&lt;font color=&quot;#2871a8&quot; face=&quot;Comic Sans MS&quot;&gt;Para quem estamos criando valor?&lt;/font&gt;&lt;/li&gt;&lt;li&gt;&lt;font color=&quot;#2871a8&quot; face=&quot;Comic Sans MS&quot;&gt;Quem são nosso clientes mais importantes?&lt;/font&gt;&lt;/li&gt;&lt;/ul&gt;&lt;/div&gt;&lt;div&gt;&lt;br&gt;&lt;/div&gt;&lt;div&gt;&lt;br&gt;&lt;/div&gt;&lt;div&gt;&lt;br&gt;&lt;/div&gt;" style="rounded=0;whiteSpace=wrap;html=1;shadow=0;labelBackgroundColor=none;strokeColor=#e8edf0;strokeWidth=5;fontSize=12;fontColor=#2F5B7C;align=left;verticalAlign=top;spacing=30;fillColor=#FFEB6B;" parent="1" vertex="1">
          <mxGeometry x="-530" y="220" width="420" height="900" as="geometry" />
        </mxCell>
        <mxCell id="705" value="&lt;div style=&quot;text-align: center&quot;&gt;&lt;b style=&quot;font-size: 26px ; color: rgb(79 , 202 , 255)&quot;&gt;&lt;font face=&quot;Comic Sans MS&quot;&gt;Canais&lt;/font&gt;&lt;/b&gt;&lt;br&gt;&lt;/div&gt;&lt;ul&gt;&lt;li&gt;&lt;span style=&quot;font-family: &amp;#34;comic sans ms&amp;#34;&quot;&gt;&lt;font color=&quot;#2871a8&quot;&gt;Através de quais canais iremos alcançar nossos clientes?&lt;/font&gt;&lt;/span&gt;&lt;/li&gt;&lt;li&gt;&lt;span style=&quot;font-family: &amp;#34;comic sans ms&amp;#34;&quot;&gt;&lt;font color=&quot;#2871a8&quot;&gt;Como nossos canais estão integrados?&lt;/font&gt;&lt;/span&gt;&lt;/li&gt;&lt;li&gt;&lt;span style=&quot;font-family: &amp;#34;comic sans ms&amp;#34;&quot;&gt;&lt;font color=&quot;#2871a8&quot;&gt;Qual desempenha melhor?&lt;/font&gt;&lt;/span&gt;&lt;/li&gt;&lt;/ul&gt;&lt;div&gt;&lt;br&gt;&lt;/div&gt;&lt;div&gt;&lt;br&gt;&lt;/div&gt;&lt;br&gt;&lt;div style=&quot;font-size: 10px&quot;&gt;&lt;br&gt;&lt;/div&gt;" style="rounded=0;whiteSpace=wrap;html=1;shadow=0;labelBackgroundColor=none;strokeColor=#e8edf0;strokeWidth=5;fontSize=12;fontColor=#2F5B7C;align=left;verticalAlign=top;spacing=30;fillColor=#FFEB6B;" parent="1" vertex="1">
          <mxGeometry x="-950" y="670" width="420" height="450" as="geometry" />
        </mxCell>
        <mxCell id="706" value="&lt;div style=&quot;font-size: 26px&quot;&gt;&lt;font style=&quot;font-size: 26px&quot; color=&quot;#ffe019&quot; face=&quot;Comic Sans MS&quot;&gt;&lt;b&gt;Cost Structure&lt;/b&gt;&lt;/font&gt;&lt;/div&gt;&lt;div&gt;&lt;br&gt;&lt;/div&gt;&lt;div&gt;&lt;ul&gt;&lt;li&gt;&lt;font face=&quot;Comic Sans MS&quot; color=&quot;#ffff38&quot;&gt;Quais são os custos mais importantes do negócio?&lt;/font&gt;&lt;/li&gt;&lt;li&gt;&lt;font face=&quot;Comic Sans MS&quot; color=&quot;#ffff38&quot;&gt;Quais são os recursos mais caros?&lt;/font&gt;&lt;/li&gt;&lt;/ul&gt;&lt;/div&gt;&lt;div&gt;&lt;br&gt;&lt;/div&gt;&lt;div&gt;&lt;br&gt;&lt;/div&gt;&lt;div style=&quot;font-size: 10px&quot;&gt;&lt;br&gt;&lt;/div&gt;" style="rounded=0;whiteSpace=wrap;html=1;shadow=0;labelBackgroundColor=none;strokeColor=#e8edf0;strokeWidth=5;fontSize=12;fontColor=#2F5B7C;align=left;verticalAlign=top;spacing=30;fillColor=#80A6FF;" parent="1" vertex="1">
          <mxGeometry x="-2210" y="1120" width="1050" height="330" as="geometry" />
        </mxCell>
        <mxCell id="707" value="&lt;div style=&quot;font-size: 26px&quot;&gt;&lt;font style=&quot;font-size: 26px&quot; face=&quot;Comic Sans MS&quot; color=&quot;#4fcaff&quot;&gt;&lt;b&gt;Revenue Streams&lt;/b&gt;&lt;/font&gt;&lt;/div&gt;&lt;div&gt;&lt;ul&gt;&lt;li&gt;&lt;font face=&quot;Comic Sans MS&quot; color=&quot;#2871a8&quot;&gt;Por quais valores nossos clientes estão realmente interessados em pagar?&lt;/font&gt;&lt;/li&gt;&lt;li&gt;&lt;font face=&quot;Comic Sans MS&quot; color=&quot;#2871a8&quot;&gt;Por quais eles pagam atualmente?&lt;/font&gt;&lt;/li&gt;&lt;li&gt;&lt;font face=&quot;Comic Sans MS&quot; color=&quot;#2871a8&quot;&gt;Como eles estão pagando atualmente?&lt;/font&gt;&lt;/li&gt;&lt;/ul&gt;&lt;/div&gt;" style="rounded=0;whiteSpace=wrap;html=1;shadow=0;labelBackgroundColor=none;strokeColor=#e8edf0;strokeWidth=5;fontSize=12;fontColor=#2F5B7C;align=left;verticalAlign=top;spacing=30;fillColor=#FFEB6B;" parent="1" vertex="1">
          <mxGeometry x="-1160" y="1120" width="1050" height="330" as="geometry" />
        </mxCell>
        <mxCell id="708" value="&lt;font color=&quot;#ffffff&quot; face=&quot;Verdana&quot;&gt;&lt;b&gt;LOJA DE COMPUTADORES RECONDICIONADOS&lt;/b&gt;&lt;/font&gt;" style="text;html=1;resizable=0;points=[];autosize=1;align=left;verticalAlign=top;spacingTop=-4;fontSize=60;fontColor=#2F5B7C;" parent="1" vertex="1">
          <mxGeometry x="-2280" y="-530" width="1580" height="80" as="geometry" />
        </mxCell>
        <mxCell id="709" value="" style="html=1;verticalLabelPosition=bottom;labelBackgroundColor=#ffffff;verticalAlign=top;shadow=0;dashed=0;strokeWidth=4;shape=mxgraph.ios7.misc.check;strokeColor=#2F5B7C;fillColor=#ffffff;gradientColor=none;fontSize=12;fontColor=#2F5B7C;align=left;" parent="1" vertex="1">
          <mxGeometry x="-1410" y="252" width="20" height="16" as="geometry" />
        </mxCell>
        <mxCell id="710" value="" style="shape=mxgraph.signs.travel.present;html=1;fillColor=#2F5B7C;strokeColor=none;verticalLabelPosition=bottom;verticalAlign=top;align=center;shadow=0;labelBackgroundColor=none;fontSize=12;fontColor=#2F5B7C;" parent="1" vertex="1">
          <mxGeometry x="-1000" y="235" width="31" height="40" as="geometry" />
        </mxCell>
        <mxCell id="711" value="" style="html=1;verticalLabelPosition=bottom;labelBackgroundColor=#ffffff;verticalAlign=top;strokeWidth=3;strokeColor=none;fillColor=#2F5B7C;shadow=0;dashed=0;shape=mxgraph.ios7.icons.heart;fontSize=12;fontColor=#2F5B7C;align=left;" parent="1" vertex="1">
          <mxGeometry x="-594.9999999999997" y="242" width="41" height="36" as="geometry" />
        </mxCell>
        <mxCell id="715" value="" style="shadow=0;dashed=0;html=1;strokeColor=none;labelPosition=center;verticalLabelPosition=bottom;verticalAlign=top;shape=mxgraph.mscae.cloud.data_factory;fillColor=#2F5B7C;labelBackgroundColor=none;fontSize=10;fontColor=#2F5B7C;align=left;" parent="1" vertex="1">
          <mxGeometry x="-1440" y="690" width="50" height="50" as="geometry" />
        </mxCell>
        <mxCell id="716" value="" style="shape=mxgraph.signs.transportation.truck_6;html=1;fillColor=#2F5B7C;strokeColor=none;verticalLabelPosition=bottom;verticalAlign=top;align=center;shadow=0;labelBackgroundColor=none;fontSize=10;fontColor=#2F5B7C;aspect=fixed;" parent="1" vertex="1">
          <mxGeometry x="-590" y="690" width="40" height="50" as="geometry" />
        </mxCell>
        <mxCell id="717" value="" style="shape=image;html=1;verticalAlign=top;verticalLabelPosition=bottom;labelBackgroundColor=#ffffff;imageAspect=0;aspect=fixed;image=https://cdn4.iconfinder.com/data/icons/evil-icons-user-interface/64/price-128.png;shadow=0;strokeColor=#e8edf0;strokeWidth=3;fillColor=#2F5B7C;gradientColor=none;fontSize=10;fontColor=#2F5B7C;align=left;" parent="1" vertex="1">
          <mxGeometry x="-1226" y="1140" width="58" height="58" as="geometry" />
        </mxCell>
        <mxCell id="718" value="" style="dashed=0;html=1;shape=mxgraph.aws3.checklist_cost;fillColor=#2F5B7C;gradientColor=none;shadow=0;labelBackgroundColor=none;strokeColor=none;strokeWidth=3;fontSize=10;fontColor=#2F5B7C;align=left;" parent="1" vertex="1">
          <mxGeometry x="-203.5" y="1131.5" width="67.5" height="75" as="geometry" />
        </mxCell>
        <mxCell id="719" value="" style="shadow=0;dashed=0;html=1;strokeColor=none;fillColor=#2F5B7C;labelPosition=center;verticalLabelPosition=bottom;verticalAlign=top;outlineConnect=0;shape=mxgraph.office.concepts.link;labelBackgroundColor=none;fontSize=10;fontColor=#000000;align=left;" parent="1" vertex="1">
          <mxGeometry x="-1871" y="241" width="61" height="21" as="geometry" />
        </mxCell>
        <mxCell id="720" value="" style="group" parent="1" vertex="1" connectable="0">
          <mxGeometry x="-203.5" y="245" width="69" height="50" as="geometry" />
        </mxCell>
        <mxCell id="721" value="" style="shadow=0;dashed=0;html=1;strokeColor=#FFFFFF;labelPosition=center;verticalLabelPosition=bottom;verticalAlign=top;outlineConnect=0;shape=mxgraph.office.users.user;fillColor=#2F5B7C;labelBackgroundColor=none;fontSize=10;fontColor=#000000;align=left;strokeWidth=2;" parent="720" vertex="1">
          <mxGeometry x="31" y="-5" width="46" height="50" as="geometry" />
        </mxCell>
        <mxCell id="722" value="" style="shadow=0;dashed=0;html=1;strokeColor=#FFFFFF;labelPosition=center;verticalLabelPosition=bottom;verticalAlign=top;outlineConnect=0;shape=mxgraph.office.users.user;fillColor=#2F5B7C;labelBackgroundColor=none;fontSize=10;fontColor=#000000;align=left;strokeWidth=2;" parent="720" vertex="1">
          <mxGeometry width="46" height="50" as="geometry" />
        </mxCell>
        <mxCell id="D0GL2LhIUCJytGpBQjqv-722" value="&lt;font style=&quot;font-size: 21px&quot; color=&quot;#FF7417&quot;&gt;Pessoas que não querem comprar computadores novos;&lt;/font&gt;" style="rounded=1;whiteSpace=wrap;html=1;fillColor=#81E872;strokeWidth=2;" parent="1" vertex="1">
          <mxGeometry x="-480" y="620" width="320" height="140" as="geometry" />
        </mxCell>
        <mxCell id="D0GL2LhIUCJytGpBQjqv-723" value="&lt;font style=&quot;font-size: 21px&quot; face=&quot;Comic Sans MS&quot; color=&quot;#FF7417&quot;&gt;Pessoas que não têm condições de comprar computadores novos&lt;br&gt;&lt;/font&gt;" style="rounded=1;whiteSpace=wrap;html=1;fillColor=#81E872;strokeWidth=2;" parent="1" vertex="1">
          <mxGeometry x="-480" y="390" width="320" height="123.5" as="geometry" />
        </mxCell>
        <mxCell id="D0GL2LhIUCJytGpBQjqv-724" value="&lt;font style=&quot;font-size: 21px&quot; face=&quot;Comic Sans MS&quot; color=&quot;#FF7417&quot;&gt;Empresas que estão começando e precisam comprar em grande quantidade&lt;/font&gt;" style="rounded=1;whiteSpace=wrap;html=1;fillColor=#81E872;strokeWidth=2;" parent="1" vertex="1">
          <mxGeometry x="-475" y="860" width="310" height="160" as="geometry" />
        </mxCell>
        <mxCell id="D0GL2LhIUCJytGpBQjqv-725" value="&lt;font style=&quot;font-size: 21px&quot; face=&quot;Comic Sans MS&quot; color=&quot;#FF7417&quot;&gt;Pessoas e/ou empresas vendendo computadores com defeito&lt;/font&gt;&lt;font style=&quot;font-size: 21px&quot; color=&quot;#FF7417&quot;&gt;&lt;br&gt;&lt;/font&gt;" style="rounded=1;whiteSpace=wrap;html=1;fillColor=#81E872;strokeWidth=2;" parent="1" vertex="1">
          <mxGeometry x="-2160" y="600" width="320" height="110" as="geometry" />
        </mxCell>
        <mxCell id="D0GL2LhIUCJytGpBQjqv-726" value="&lt;font style=&quot;font-size: 21px&quot; face=&quot;Comic Sans MS&quot; color=&quot;#FF7417&quot;&gt;Fornecedores de hardware&lt;/font&gt;" style="rounded=1;whiteSpace=wrap;html=1;fillColor=#81E872;strokeWidth=2;" parent="1" vertex="1">
          <mxGeometry x="-2150" y="840" width="300" height="88" as="geometry" />
        </mxCell>
        <mxCell id="D0GL2LhIUCJytGpBQjqv-727" value="&lt;font style=&quot;font-size: 37px&quot; face=&quot;Comic Sans MS&quot; color=&quot;#FF7417&quot;&gt;Levar o acesso ao mundo digital para quem não pode comprar um equipamento novo de fábrica&lt;/font&gt;" style="rounded=1;whiteSpace=wrap;html=1;fillColor=#81E872;strokeWidth=2;" parent="1" vertex="1">
          <mxGeometry x="-1334.37" y="490" width="348.75" height="350" as="geometry" />
        </mxCell>
        <mxCell id="T8x1AESvNzfFybxVBiy3-722" value="&lt;font style=&quot;font-size: 21px&quot; face=&quot;Comic Sans MS&quot; color=&quot;#FF7417&quot;&gt;Reparo e substituição de componentes defeituosos&lt;br&gt;&lt;/font&gt;" style="rounded=1;whiteSpace=wrap;html=1;fillColor=#81E872;strokeWidth=2;" parent="1" vertex="1">
          <mxGeometry x="-1753" y="490" width="310" height="110" as="geometry" />
        </mxCell>
        <mxCell id="T8x1AESvNzfFybxVBiy3-723" value="&lt;font style=&quot;font-size: 21px&quot; face=&quot;Comic Sans MS&quot; color=&quot;#FF7417&quot;&gt;Identificação de componentes defeituosos&lt;/font&gt;" style="rounded=1;whiteSpace=wrap;html=1;fillColor=#81E872;strokeWidth=2;" parent="1" vertex="1">
          <mxGeometry x="-1753" y="340" width="310" height="110" as="geometry" />
        </mxCell>
        <mxCell id="T8x1AESvNzfFybxVBiy3-724" value="&lt;font style=&quot;font-size: 21px&quot; face=&quot;Comic Sans MS&quot; color=&quot;#FF7417&quot;&gt;Sites de vendas online, como Mercado Livre e Olx&lt;br&gt;&lt;/font&gt;" style="rounded=1;whiteSpace=wrap;html=1;fillColor=#81E872;strokeWidth=2;" parent="1" vertex="1">
          <mxGeometry x="-905" y="827" width="320" height="90" as="geometry" />
        </mxCell>
        <mxCell id="T8x1AESvNzfFybxVBiy3-725" value="&lt;font style=&quot;font-size: 21px&quot; face=&quot;Comic Sans MS&quot; color=&quot;#FF7417&quot;&gt;Publicidade em redes sociais&lt;/font&gt;" style="rounded=1;whiteSpace=wrap;html=1;fillColor=#81E872;strokeWidth=2;" parent="1" vertex="1">
          <mxGeometry x="-905.5" y="960" width="320" height="90" as="geometry" />
        </mxCell>
        <mxCell id="T8x1AESvNzfFybxVBiy3-726" value="&lt;font style=&quot;font-size: 21px&quot; color=&quot;#FF7417&quot;&gt;Suporte para os clientes via WhatsApp&lt;/font&gt;" style="rounded=1;whiteSpace=wrap;html=1;fillColor=#81E872;strokeWidth=2;" parent="1" vertex="1">
          <mxGeometry x="-910" y="410" width="320" height="70" as="geometry" />
        </mxCell>
        <mxCell id="T8x1AESvNzfFybxVBiy3-727" value="&lt;font style=&quot;font-size: 21px&quot; face=&quot;Comic Sans MS&quot; color=&quot;#FF7417&quot;&gt;Remarketing e notificações de promoção via Discord&lt;/font&gt;" style="rounded=1;whiteSpace=wrap;html=1;fillColor=#81E872;strokeWidth=2;" parent="1" vertex="1">
          <mxGeometry x="-910" y="530" width="320" height="70" as="geometry" />
        </mxCell>
        <mxCell id="kFA_U0WgRnzVZfEOI6qG-723" value="&lt;font style=&quot;font-size: 21px&quot; face=&quot;Comic Sans MS&quot; color=&quot;#FF7417&quot;&gt;Ferramentas, tais como, ferro de solda, multímetros e jogo de chaves&lt;/font&gt;" style="rounded=1;whiteSpace=wrap;html=1;fillColor=#81E872;strokeWidth=2;" parent="1" vertex="1">
          <mxGeometry x="-1736.5" y="890" width="306.5" height="80" as="geometry" />
        </mxCell>
        <mxCell id="kFA_U0WgRnzVZfEOI6qG-724" value="&lt;font style=&quot;font-size: 21px&quot; face=&quot;Comic Sans MS&quot; color=&quot;#FF7417&quot;&gt;Técnicos capacitados para o trabalho&lt;/font&gt;" style="rounded=1;whiteSpace=wrap;html=1;fillColor=#81E872;strokeWidth=2;" parent="1" vertex="1">
          <mxGeometry x="-1736.5" y="1010" width="313" height="80" as="geometry" />
        </mxCell>
        <mxCell id="kFA_U0WgRnzVZfEOI6qG-725" value="&lt;font style=&quot;font-size: 21px&quot; face=&quot;Comic Sans MS&quot; color=&quot;#FF7417&quot;&gt;Estações de trabalho&lt;/font&gt;" style="rounded=1;whiteSpace=wrap;html=1;fillColor=#81E872;strokeWidth=2;" parent="1" vertex="1">
          <mxGeometry x="-1713.25" y="785" width="266.5" height="60" as="geometry" />
        </mxCell>
        <mxCell id="kFA_U0WgRnzVZfEOI6qG-726" value="&lt;font style=&quot;font-size: 21px&quot; face=&quot;Comic Sans MS&quot; color=&quot;#FF7417&quot;&gt;Ferramental&lt;/font&gt;" style="rounded=1;whiteSpace=wrap;html=1;fillColor=#81E872;strokeWidth=2;" parent="1" vertex="1">
          <mxGeometry x="-2170" y="1284" width="190" height="54" as="geometry" />
        </mxCell>
        <mxCell id="kFA_U0WgRnzVZfEOI6qG-727" value="&lt;font style=&quot;font-size: 21px&quot; face=&quot;Comic Sans MS&quot; color=&quot;#FF7417&quot;&gt;Compra de máquina com defeito&lt;/font&gt;" style="rounded=1;whiteSpace=wrap;html=1;fillColor=#81E872;strokeWidth=2;" parent="1" vertex="1">
          <mxGeometry x="-1910" y="1241" width="260" height="56" as="geometry" />
        </mxCell>
        <mxCell id="kFA_U0WgRnzVZfEOI6qG-728" value="&lt;font style=&quot;font-size: 21px&quot; face=&quot;Comic Sans MS&quot; color=&quot;#FF7417&quot;&gt;Compra de hardware novo&lt;/font&gt;" style="rounded=1;whiteSpace=wrap;html=1;fillColor=#81E872;strokeWidth=2;" parent="1" vertex="1">
          <mxGeometry x="-1583.75" y="1241" width="260" height="56" as="geometry" />
        </mxCell>
        <mxCell id="kFA_U0WgRnzVZfEOI6qG-729" value="&lt;font style=&quot;font-size: 21px&quot; face=&quot;Comic Sans MS&quot; color=&quot;#FF7417&quot;&gt;Salários de funcionários&lt;/font&gt;" style="rounded=1;whiteSpace=wrap;html=1;fillColor=#81E872;strokeWidth=2;" parent="1" vertex="1">
          <mxGeometry x="-1910" y="1370" width="260" height="56" as="geometry" />
        </mxCell>
        <mxCell id="kFA_U0WgRnzVZfEOI6qG-730" value="&lt;font style=&quot;font-size: 21px&quot; face=&quot;Comic Sans MS&quot; color=&quot;#FF7417&quot;&gt;EPI&lt;/font&gt;" style="rounded=1;whiteSpace=wrap;html=1;fillColor=#81E872;strokeWidth=2;" parent="1" vertex="1">
          <mxGeometry x="-1537.5" y="1370" width="167.5" height="50" as="geometry" />
        </mxCell>
        <mxCell id="kFA_U0WgRnzVZfEOI6qG-731" value="&lt;font style=&quot;font-size: 21px&quot; face=&quot;Comic Sans MS&quot; color=&quot;#FF7417&quot;&gt;Venda de computadores e notebooks&lt;/font&gt;" style="rounded=1;whiteSpace=wrap;html=1;fillColor=#81E872;strokeWidth=2;" parent="1" vertex="1">
          <mxGeometry x="-1114.5" y="1297" width="260" height="56" as="geometry" />
        </mxCell>
        <mxCell id="kFA_U0WgRnzVZfEOI6qG-732" value="&lt;font style=&quot;font-size: 21px&quot; face=&quot;Comic Sans MS&quot; color=&quot;#FF7417&quot;&gt;Aluguel de computadores&lt;/font&gt;" style="rounded=1;whiteSpace=wrap;html=1;fillColor=#81E872;strokeWidth=2;" parent="1" vertex="1">
          <mxGeometry x="-760" y="1241" width="260" height="56" as="geometry" />
        </mxCell>
        <mxCell id="kFA_U0WgRnzVZfEOI6qG-733" style="edgeStyle=orthogonalEdgeStyle;rounded=0;orthogonalLoop=1;jettySize=auto;html=1;exitX=0.5;exitY=1;exitDx=0;exitDy=0;" parent="1" source="kFA_U0WgRnzVZfEOI6qG-732" target="kFA_U0WgRnzVZfEOI6qG-732" edge="1">
          <mxGeometry relative="1" as="geometry" />
        </mxCell>
        <mxCell id="kFA_U0WgRnzVZfEOI6qG-734" value="&lt;font style=&quot;font-size: 21px&quot; face=&quot;Comic Sans MS&quot; color=&quot;#FF7417&quot;&gt;Venda com desconto em grande quantidade para empresas&lt;/font&gt;" style="rounded=1;whiteSpace=wrap;html=1;fillColor=#81E872;strokeWidth=2;" parent="1" vertex="1">
          <mxGeometry x="-772.5" y="1343" width="285" height="83" as="geometry" />
        </mxCell>
        <mxCell id="kFA_U0WgRnzVZfEOI6qG-735" value="&lt;font style=&quot;font-size: 21px&quot; face=&quot;Comic Sans MS&quot; color=&quot;#FF7417&quot;&gt;Promoções em datas específicas&lt;/font&gt;" style="rounded=1;whiteSpace=wrap;html=1;fillColor=#81E872;strokeWidth=2;" parent="1" vertex="1">
          <mxGeometry x="-410" y="1297" width="260" height="56" as="geometry" />
        </mxCell>
        <mxCell id="kFA_U0WgRnzVZfEOI6qG-736" style="edgeStyle=orthogonalEdgeStyle;rounded=0;orthogonalLoop=1;jettySize=auto;html=1;exitX=0.5;exitY=1;exitDx=0;exitDy=0;" parent="1" source="kFA_U0WgRnzVZfEOI6qG-731" target="kFA_U0WgRnzVZfEOI6qG-731" edge="1">
          <mxGeometry relative="1" as="geometry" />
        </mxCell>
        <mxCell id="rxgPltwGKDu_2yFfDtSF-722" value="" style="shape=image;verticalLabelPosition=bottom;labelBackgroundColor=#ffffff;verticalAlign=top;aspect=fixed;imageAspect=0;image=data:image/png,iVBORw0KGgoAAAANSUhEUgAAAW8AAACsCAYAAAC0Ny26AAAPnnpUWHRSYXcgcHJvZmlsZSB0eXBlIGV4aWYAAHjarZlpdty4kkb/YxW9BIwBYDmB6ZzeQS+/b4AplSTLr+rJpbSVmRQJAjF8A+j2//3vcf/DT5YaXS61SRfx/OSee1Q+NP/86P0dfL6/74+c16fw+bjT+boocijxnp6vTZ738Hb8dcHbe1A+lQ8DtddAYXz+Q8+v8duXgV43SjajyIf1Gqi/Bkrx+UN4DaD6Wkpv9eMSxn7eX9c/YeC/s1/j7Wh5nfzle65EbxXuk2LcKSTP75jyM4Fk/4NLyofM78BJTDg1PheOKUfjayYE5Ls4+Q+zcl+z8v7pS1Zq/T4pSZ4zHAc+B1Pe3789Hsr3wXc3xB/unObrU/x8/Kzwy3Le/p+zmjtnP6vTLIRUXot6W+L9xImDkKd7mfCq/C98rvfVeTVH9U5Svvz0g9cMPUTSckIOK2g4Yd/3GSZTzHHHynuMk0TZsZZq7HEm78hTtlc4saaeFlmLaZLeZFl7n0u49+33djM0brwCZ8bAYOQ7RWe//o3Xbwc6x0o+BAsmqQ83PyFaZTENy5z95iwSEs5bHZUb4LfX1x/LayKD5Ya5sUD14xlilPCqLaujdBOdOLHw/vRaqOs1ACHi3oXJhEQGvIRUggRfY6whEMdGfpSBGk0TBykIpcTFLGNOSUhOi3ZvrqnhnhtLfA6DWSSiJEmV1PSk5CoDbNRPzY0a0pJKLqVIqaWVXlSSZCkiUsXAT2uquZYqtdZWe9WWWm6lSautudab9tgT4Fi69Npb712VmyojK1crJ6iOONLIowwZdbTRh07KZ+ZZpsw6m5t96oorLXBiyaqrrb50h00p7bzLll13233rodROOvmUI6eedvrR96wF96T1l9c/z1p4y1q8mbIT63vWuPTCxh0iGJwUyxkZizmQ8WoZMACznPkWco7OUmc58z3SFSUyy2LJodnJGBnMO8Rywnvu/srcp7y5nP8ob/Etc85S929kzlnqfpO5X/P2TdaWsc30yd0MWRtaUH2i/ThJY+MfnPTP391/e8F/NVAIvZeQR6KRS1i5p0bEji7prLHkNVvM9dSSezi9hdKGurl2JnT1sCiJpI6xwN54OH2RvgSMQjknxZ1b3WcgOnSnXurNT1ux1BHWcmFSPI0S0JF1EdW2/NkMksYhyMluEKbwpumMSlnZkU6sz6xhnBm12RFnKG5Ad1aqZ9FPHFyVi3YI7Z7CcJ1B7dI9Vtx1lnqi8mULaZ1cktJxfM1l/2QOn6fg/n4OYZ7G/Us5q85JQ/h65rTz9PRQx3Mz9/Vu7fPknqmZyrkz9W2SLivLdU6dN0Vlc3VzWWJ6BtN7ybDL9eSadhyH5FDIyT+hoGDT+S4W3M4993sPxp0c6/8rGK9QcOyvfHyMxCsO7rnwP4TiYyC+3uhDHNynLN1APGGwvrNAQI8WihsIQvRE4onDeK594uB+CcRvwvB3JeG+q4mflIT7riZ+UhLuu5r4SUm472riJyXhvquJn5SE+64mflIS7rua+ElJuH8KE39XEu7vYEK7HG1Lyxpgs1TYMqy2Ea9LdBU0rZquia7gp6Tyl8P9wWQ/xbdTFWYL8RS4bI4Qk+wuKY3Cn2IaT9o36wehYcWzulv5MnIZ/qAhjsC2C2ENcwfMZQkTiWAfzYB9fkdws0wYnQjXfmFkdR16dGdbVJvjMgqVekZirBR1TTRArnFKg45V8p0RKoo4jth3r8vlk1NQ3UirlpleTXMgE1jCHa7K6BLOmAutYEJZFzFZa0chfzVEFlazAGyJTMvIHNJRThcIjaERHiUcqWPEellzaJ750qeaPVV/sk5ITY4IeqJ1h/ipa/UwyMgwQlS8Qd6WOuHEBE8q3Dg0UGOFxO1TV8xdeycyEG6T5GfJTlASMR9JE0oONjnpxRTLJsqUSV97YTyYi+rMCxmDwEaVIbDjaJGQonlmLY47J64nSpAyEZ0KQd/VaOu/Uw3EV29KotfRwQ6/HOKskUBk0K1VsxfkSvSe+TqPIPv1OpFz7NR7IgBDWlEZDOVw41T9yntrOXv3dChxDWajLCQLs97KLR3Q6vM7NYYn7KFXWtDtJ81MYezRn/vEx6jdNtloEjRcDWLaAgmyDvEeFEtF9CBMRszNgK3eqS/WgFLcCEZZQzW3xeTC7fB2qErAxms+6nVWdIRScUR0RyQTlcCNnQmpiGJCO/JXWtnMGhr7WCvFWdOaZaw9qwAfSinkgI8MFc/EmCNGKcQliYukP3Fvk9nzpIK5reQQEdUVbIp5tCno0ZkWsUIj0yIURGZ2BwmLRpVQFBZR5HXQDRxRGysq5ixxajVojDI8gkgReWFMb7ZrCu1uDp1MDiqP2YoUv9QBKLSKjmS6frEUcCtTglXIB9IeUNzBUDSBxQMxr7JRzpR8oV8X+S6ECuNHdDIpm/RmSSjI6elH8JimCQbGChhx1yg9UhykZgwaGpADP/v0YREUGRrR2chX25YhRSnQ8+SunswEFqgyEPx9AhxKE+e1R0WEB8BKWXvbExwYwFfX4gCJmq13MB1g5dy5qnV2NySliWjiCSLU7SmecOwmyNa8AfGHgDTtSm25h8FKmaM16GM2LQME84OjW82FpAJetjFzIZyB9Y1RAT+aBD1OAeBT8hAneLfBrCIhWF1yanEPWtyaBAFOwXRZnkSemwDsU0tamRG9t8WUdhFAfLjVgBBmzEr2puLwOI37BJmHikz5BFmkjW9meyiaiH1cAz4Fret1SYeXungI9vD4nmaEtaEauKP7sno3yhtYr0k2Yia4++FbxXFtvNkZfgjJW7smd7RQVB3wpYqvQfJacWpDaiq4P4Cc5YBmY0iHJ5cnkJrmpC2AO3yuYjyPOHMiQCrtZe3QQTwuZw3Hyj0syTBjylIhXugsV0YkuqAE3rgB+EI9FDrIFQEI15zDSs+T9Uyr9UkrQwaFlKx1irAM22/Bxe4AUVm7Q8CUdpt874TQLas7eoapj8nKwZ8I1VPuMLNAGPANaSYKTJWOw9UWpbBltgIpJQgfqNtoyC2UCDH2wAupJuZ0XtRO8ohDoTdWxzsDn1IQP1MiOaFoRBoFtqCiAXgMRwkx4D4yzcaVObHzjfso7L+bQcu2oGHcL5KmsllVAJGVe7DgjORBJmSnGhpFWvBygUo8NPagk8xDVwMs4AVgwUtfDsZUZgP1Q32UC8XwIeYbeWxfcM+3Pmx/7yoB/L9hGtAGNobY10RNgQcjkValXcB0w/bnMvC9q+MqDCtUk3u1VNr31AQ5QFjqR0KBMcG73zGK+0gpf8Ao0dUqvo8NRm2VInRdWbaJ0XG90P1E0STyCCTInCZGolVZ8fydSgCHKcEAozrqO5Q75qpDuJqAQMihJiA4FLuS+gDsfUM2CPU902gB7TPQIYKvL5MsZhdMFxVkGCVi7F6hLlgMPZbXKNHClLmMwiBSHR8+us17+TKBY7qCMNl+kaucRlMgUK18aTKqEqM/Gt9Lo4qBeq5HB28W0sCZNYkiHUOnAeQltTRss45T0HSZ+UFCveeUR4rWetQmErf7jcano601iZzJUkNwkD001HFBTb22oY0JgJhGIcYWTXB1eMiTwzMBV5oUduKmp5WtUAICGbkq2zaKs0059xb7gWlztcjR0qvTUBNUC90a1c+psDBZnY8rWEUj0EFdRVNZ2q8mMFjnm5PKaurUA7zNSQ4oFLREUaN9fsFaSOzc+iptRMph5F1RwTazRecxfzjIN9dNsEdlSmAVgVUbRAdT5z4TdA0I1ZIWkDpj2dY7FdbQmArKNU7b91qIL4fcPRGwr7YxSF8mlKGac8lIG7H3caALmJBAkd6RKQPLIKoeyIRwaWOaHDFqsD6MXWCnjDgvy5gUQUDjTfQP04UCdoQirW3xR4bCQLWBtCSEBQABsA3qONPbUY9HB9YcwTvDV9scRjSUDhAkEgX6GRMa6TF56BrJHvBEBKKs5Uy/N9uHs3LY1s0gT6EjBCnlLUmskCUZK4IPKxxaB35BK80ANYNtJmRwR7ECOs3gwsKa4EOcE/Kv5222ceaOZcKB4RAsT2SB1qGTvW0NkrJ2lVR1aV0+MWQFGYVanIRZsD6D3kGyHzNmc68A0GQzRES9tEn8drAnRYszwGdXaBYIDwCAO206uSWTDMilwMjoDttsJ+vfoOIgCG+w6z7i7rewi5lAgMFwRNugoh+SE/EW21C0v6Goe4PR/h9g9Lco2nYltbW1PByaj7MRTFbEbfoJFcJWjaonbZOscf4wr2T2APtcMQNY2mL0jMYC1eAsqQ7lME2NWR9cy2AFSdMyeWxFw8oTeGTDNqs3uCtQ1BFAaJdK3XuhaDdGz8Hk0H6najoJtL1woKdCipVR0E44wkPzHjQVlEqn2GO/IJY2e9JJcWQ8dMLTMmU0QpxRMgiG5TI11CxCeTOnA8YW2wW2MUkP6IaUoNrRQvbESehaiDS6bLvv06QsFQ5dIJeoE+QMjAOGGMBEi9s8qMxLSoC1mGHqFDfeEKYavQuYTU8PuQqUdsb2bVKNc6mK1DJtT0IJg6CvFeEHYtqzHS6PNvoVuaSLgsxMm3EzbYpq7J2qOYgPVosRv1sH5jy9uZXqK8Bx6KFbAtnsClQC6+h05nNMm5qihyHS9bZl3aDY8waKe+LV8d6wWWgFA+AJZDJ1dr0l0azHo9hwMsCDORo/Tm804y7UDfbqmNa7EwdlUNnDo96Z4ba9bsiqosFAErDTHq8ygu2LMG9MEFGnmFD8uC3buEb3+ch8fGgtTXtqbsbm7ndsQBYNDM0nkhi7Y8IRpUT1MTgVSowA74MoeXqt8tdoDYSBisM2YWi1HpAKpr1xBTbhDWUXqNWAWKaZPk5BwiIFYfNmG/RMXKEPuMseVMgG6AXdBqwHwthtT31n9DTgrxHAQ3kgBqGo9LL0/8SoSxdmSeIUVnZoV8KQhHag2YhBaBmhw4rasQcuwMmrEBuWGk2E7S0k4dk4hAV2R6MdffazwzjPfpHY09Lf7BehevVgVceJ8T4QollQEkhWtE50eIdK9ZFLGnoee3zBDEkBdDkgvTiIuwTAohu+0M8ZKQZwXJjLw9QTJu84yt8s4/WN+Nfztj9KpxMkwOhGyhyQ7VhuhAZBALAhgw7SFeypPUkYznbXfjBY2kq7wMDhNZZjsG/HIshfx7oj3S3Eb8Zyz8T+fF7ufZF/OC/3vsg/nJf7GLA/mZf7Evwfz8v9msifzct9WxQ/mJf7XYE9Y62aK+72RLBjI7AQvdv2LRtUCrCaZEU87QHUZhS1PR3cdw+hqtk+FH9DN9UyuunIDJYBZhuN0p7N0TVtg+nTlqL7V55k/migZNIIsP9/6Kf2MPp8iBMAAAGFaUNDUElDQyBwcm9maWxlAAB4nH2RPUjDUBSFT9NqRSoOVhBxyFCdLIiKOEoVi2ChtBVadTB56R80aUhSXBwF14KDP4tVBxdnXR1cBUHwB8TNzUnRRUq8Lym0iPHC432cd8/hvfsAoVFhqhmYAFTNMlLxmJjNrYrBVwQQwiB86JaYqSfSixl41tc99VHdRXmWd9+f1afkTQb4ROI5phsW8QbxzKalc94nDrOSpBCfE48bdEHiR67LLr9xLjos8MywkUnNE4eJxWIHyx3MSoZKPE0cUVSN8oWsywrnLc5qpcZa9+QvDOW1lTTXaY0gjiUkkIQIGTWUUYGFKO0aKSZSdB7z8A87/iS5ZHKVwcixgCpUSI4f/A9+z9YsTE26SaEY0PVi2x+jQHAXaNZt+/vYtpsngP8ZuNLa/moDmP0kvd7WIkdA/zZwcd3W5D3gcgcYetIlQ3IkPy2hUADez+ibcsDALdC75s6tdY7TByBDs1q+AQ4OgbEiZa97vLunc27/9rTm9wP64nJ33ZCDBQAADchpVFh0WE1MOmNvbS5hZG9iZS54bXAAAAAAADw/eHBhY2tldCBiZWdpbj0i77u/IiBpZD0iVzVNME1wQ2VoaUh6cmVTek5UY3prYzlkIj8+Cjx4OnhtcG1ldGEgeG1sbnM6eD0iYWRvYmU6bnM6bWV0YS8iIHg6eG1wdGs9IlhNUCBDb3JlIDQuNC4wLUV4aXYyIj4KIDxyZGY6UkRGIHhtbG5zOnJkZj0iaHR0cDovL3d3dy53My5vcmcvMTk5OS8wMi8yMi1yZGYtc3ludGF4LW5zIyI+CiAgPHJkZjpEZXNjcmlwdGlvbiByZGY6YWJvdXQ9IiIKICAgIHhtbG5zOnhtcE1NPSJodHRwOi8vbnMuYWRvYmUuY29tL3hhcC8xLjAvbW0vIgogICAgeG1sbnM6c3RFdnQ9Imh0dHA6Ly9ucy5hZG9iZS5jb20veGFwLzEuMC9zVHlwZS9SZXNvdXJjZUV2ZW50IyIKICAgIHhtbG5zOmRjPSJodHRwOi8vcHVybC5vcmcvZGMvZWxlbWVudHMvMS4xLyIKICAgIHhtbG5zOkdJTVA9Imh0dHA6Ly93d3cuZ2ltcC5vcmcveG1wLyIKICAgIHhtbG5zOnBkZj0iaHR0cDovL25zLmFkb2JlLmNvbS9wZGYvMS4zLyIKICAgIHhtbG5zOnRpZmY9Imh0dHA6Ly9ucy5hZG9iZS5jb20vdGlmZi8xLjAvIgogICAgeG1sbnM6eG1wPSJodHRwOi8vbnMuYWRvYmUuY29tL3hhcC8xLjAvIgogICB4bXBNTTpEb2N1bWVudElEPSJnaW1wOmRvY2lkOmdpbXA6YTRhNzhjOTktOTczOS00ZTc3LTkyMTgtNzc3NzhmZGVmMjM5IgogICB4bXBNTTpJbnN0YW5jZUlEPSJ4bXAuaWlkOmU0MTJiNzFkLTg5ZjMtNGVhZS1hYzhmLTJiZGY5ZDVlZTM4YiIKICAgeG1wTU06T3JpZ2luYWxEb2N1bWVudElEPSJ4bXAuZGlkOmYzYjE2ZTczLWEwNTgtNDZmMy05Y2VkLTY0MWQwNTE3MDMyZiIKICAgZGM6Rm9ybWF0PSJpbWFnZS9wbmciCiAgIEdJTVA6QVBJPSIyLjAiCiAgIEdJTVA6UGxhdGZvcm09IldpbmRvd3MiCiAgIEdJTVA6VGltZVN0YW1wPSIxNjE4MjY0MjY2NDQ0MDEwIgogICBHSU1QOlZlcnNpb249IjIuMTAuMjQiCiAgIHBkZjpBdXRob3I9Ik5hbWVsZXNzIgogICB0aWZmOk9yaWVudGF0aW9uPSIxIgogICB4bXA6Q3JlYXRvclRvb2w9IkdJTVAgMi4xMCI+CiAgIDx4bXBNTTpIaXN0b3J5PgogICAgPHJkZjpTZXE+CiAgICAgPHJkZjpsaQogICAgICBzdEV2dDphY3Rpb249InNhdmVkIgogICAgICBzdEV2dDpjaGFuZ2VkPSIvIgogICAgICBzdEV2dDppbnN0YW5jZUlEPSJ4bXAuaWlkOjhiOTlmYTE0LTg1OTEtNGI1Yy1iODIyLTE1NTZkYzg2MzY1MSIKICAgICAgc3RFdnQ6c29mdHdhcmVBZ2VudD0iR2ltcCAyLjEwIChXaW5kb3dzKSIKICAgICAgc3RFdnQ6d2hlbj0iMjAyMS0wNC0xMlQxODo1MTowNiIvPgogICAgPC9yZGY6U2VxPgogICA8L3htcE1NOkhpc3Rvcnk+CiAgIDxkYzp0aXRsZT4KICAgIDxyZGY6QWx0PgogICAgIDxyZGY6bGkgeG1sOmxhbmc9IngtZGVmYXVsdCI+VGVjaDwvcmRmOmxpPgogICAgPC9yZGY6QWx0PgogICA8L2RjOnRpdGxlPgogIDwvcmRmOkRlc2NyaXB0aW9uPgogPC9yZGY6UkRGPgo8L3g6eG1wbWV0YT4KICAgICAgICAgICAgICAgICAgICAgICAgICAgICAgICAgICAgICAgICAgICAgICAgICAgICAgICAgICAgICAgICAgICAgICAgICAgICAgICAgICAgICAgICAgICAgICAgICAgIAogICAgICAgICAgICAgICAgICAgICAgICAgICAgICAgICAgICAgICAgICAgICAgICAgICAgICAgICAgICAgICAgICAgICAgICAgICAgICAgICAgICAgICAgICAgICAgICAgICAgCiAgICAgICAgICAgICAgICAgICAgICAgICAgICAgICAgICAgICAgICAgICAgICAgICAgICAgICAgICAgICAgICAgICAgICAgICAgICAgICAgICAgICAgICAgICAgICAgICAgICAKICAgICAgICAgICAgICAgICAgICAgICAgICAgICAgICAgICAgICAgICAgICAgICAgICAgICAgICAgICAgICAgICAgICAgICAgICAgICAgICAgICAgICAgICAgICAgICAgICAgIAogICAgICAgICAgICAgICAgICAgICAgICAgICAgICAgICAgICAgICAgICAgICAgICAgICAgICAgICAgICAgICAgICAgICAgICAgICAgICAgICAgICAgICAgICAgICAgICAgICAgCiAgICAgICAgICAgICAgICAgICAgICAgICAgICAgICAgICAgICAgICAgICAgICAgICAgICAgICAgICAgICAgICAgICAgICAgICAgICAgICAgICAgICAgICAgICAgICAgICAgICAKICAgICAgICAgICAgICAgICAgICAgICAgICAgICAgICAgICAgICAgICAgICAgICAgICAgICAgICAgICAgICAgICAgICAgICAgICAgICAgICAgICAgICAgICAgICAgICAgICAgIAogICAgICAgICAgICAgICAgICAgICAgICAgICAgICAgICAgICAgICAgICAgICAgICAgICAgICAgICAgICAgICAgICAgICAgICAgICAgICAgICAgICAgICAgICAgICAgICAgICAgCiAgICAgICAgICAgICAgICAgICAgICAgICAgICAgICAgICAgICAgICAgICAgICAgICAgICAgICAgICAgICAgICAgICAgICAgICAgICAgICAgICAgICAgICAgICAgICAgICAgICAKICAgICAgICAgICAgICAgICAgICAgICAgICAgICAgICAgICAgICAgICAgICAgICAgICAgICAgICAgICAgICAgICAgICAgICAgICAgICAgICAgICAgICAgICAgICAgICAgICAgIAogICAgICAgICAgICAgICAgICAgICAgICAgICAgICAgICAgICAgICAgICAgICAgICAgICAgICAgICAgICAgICAgICAgICAgICAgICAgICAgICAgICAgICAgICAgICAgICAgICAgCiAgICAgICAgICAgICAgICAgICAgICAgICAgICAgICAgICAgICAgICAgICAgICAgICAgICAgICAgICAgICAgICAgICAgICAgICAgICAgICAgICAgICAgICAgICAgICAgICAgICAKICAgICAgICAgICAgICAgICAgICAgICAgICAgICAgICAgICAgICAgICAgICAgICAgICAgICAgICAgICAgICAgICAgICAgICAgICAgICAgICAgICAgICAgICAgICAgICAgICAgIAogICAgICAgICAgICAgICAgICAgICAgICAgICAgICAgICAgICAgICAgICAgICAgICAgICAgICAgICAgICAgICAgICAgICAgICAgICAgICAgICAgICAgICAgICAgICAgICAgICAgCiAgICAgICAgICAgICAgICAgICAgICAgICAgICAgICAgICAgICAgICAgICAgICAgICAgICAgICAgICAgICAgICAgICAgICAgICAgICAgICAgICAgICAgICAgICAgICAgICAgICAKICAgICAgICAgICAgICAgICAgICAgICAgICAgICAgICAgICAgICAgICAgICAgICAgICAgICAgICAgICAgICAgICAgICAgICAgICAgICAgICAgICAgICAgICAgICAgICAgICAgIAogICAgICAgICAgICAgICAgICAgICAgICAgICAgICAgICAgICAgICAgICAgICAgICAgICAgICAgICAgICAgICAgICAgICAgICAgICAgICAgICAgICAgICAgICAgICAgICAgICAgCiAgICAgICAgICAgICAgICAgICAgICAgICAgICAgICAgICAgICAgICAgICAgICAgICAgICAgICAgICAgICAgICAgICAgICAgICAgICAgICAgICAgICAgICAgICAgICAgICAgICAKICAgICAgICAgICAgICAgICAgICAgICAgICAgICAgICAgICAgICAgICAgICAgICAgICAgICAgICAgICAgICAgICAgICAgICAgICAgICAgICAgICAgICAgICAgICAgICAgICAgIAogICAgICAgICAgICAgICAgICAgICAgICAgICAgICAgICAgICAgICAgICAgICAgICAgICAgICAgICAgICAgICAgICAgICAgICAgICAgICAgICAgICAgICAgICAgICAgICAgICAgCiAgICAgICAgICAgICAgICAgICAgICAgICAgIAo8P3hwYWNrZXQgZW5kPSJ3Ij8+k+3zogAAAAlwSFlzAAAOxAAADsQBlSsOGwAAAAd0SU1FB+UEDBUzBjLumHcAABlTSURBVHja7d15kJTlnQfw7+/tnhsYhmPAAREGJSoqATw4plzIkstsNiYwpmo3VVZltyqbZFRMaFATdKNGkfEMk81Waiu72T9SJQ253M3iFa8Z7kFAEVCO4RBwYBjmPrrf97d/dM9M9/Tx9jlH9/dTZSH08Z7P933ep5/3eQAiIiIiIiIiIiIiIiIiIiIiIiIiIiIiIiIiIiIiIiIiIiIiIiIiIiIiIiIiIiIiIiIiIiIiIiIiIiIiIiIiIiIiIiIiIiIiIiIiIiIiIiIiIiIiIiIiIiIiIiKi+Em2bbBuXqM87EQZFmT3PJt1WZYVG8zAJsoSX3vki1I04Q2GN0ObiFgbZ3gzuImIAc7wZnATUdYGeMZtFIObiLIhwDNqgxjcRJQtAW4wuImIWPMeFeGdjX1CiTJRvJW2TCr7kk0HkKFNlN1BnkkZYGTLgWVwE7GMZ1Lz6qgP72y72hIRy3pW1LwZ3ETE8CYiGuUVtkxpOmF4ExExvImIiOFNREQMbyIihjcRETG8iYiI4U1ExPAmIiKGNxERMbyJiBjeRETE8CYiIoY3ERExvJOhPc3l2tNczj1BRMPByV1gE9Ln35uE4y9fDHlhz3rf67VVUT8vFTVZO564HncX4sJ7HVALEAcwdckDMvvbv0jrMrsvl2Pfk8dheQBnEWD1Ao4CwNsOOIogi57i+O7E8M7IwKmtCh7r9/jLSX9f1gb4+Xc6BnaECZx/7yW9tP9XMunznrQcNyMX2Puo/6opgNUNqAWo1/entxW6Z72ipzmrL6rE8M68oE6SVNSItp/NkTHTPdl+YkXct5fq07Qs8dWyAcCRD1kcOiC/7npE0dsKGLnZfVElhveoC5SmgwYO/9pMTVI7IEtfCin8DG4bVz7pBZCS0NTaqusBHPb/zX9GF0EWPRP++z2tDhTPd6Jlfw9yxvJYEMN7tJCJt1ixBoe2n16G/RvfivwGk2dPIrzt0K6LK6Rg8hupOahOX7PIwD9EuzOyAPRqbRXgaYPWPaiy9AXWvmlUYm+TyDXr97gT0qTz3Dsp+qbDwcHtvzjUPRi1OUwqagSOfABeHgtieGdcdhdNY9U6XbovzU7vAiz73zPmPzwOqin/3YOI4U2Zq6e5MK3f72/S0tqqvIgX5/yJbTCcgLAIEMObKDbn3k5JlxPb3iJTl02wPf3V4vEghjfRiPLZu+eivm71AkYO9xMxvImGXLRmD7WgtfdptJq7LGFvExqd+IRlErTlmFOKr824Lgu6a70Js90ADF9/9sUbR27A2TV7GEN/ig/+EZQPAxHDe6RV+tIQ3Np00MDHvzUhTgAWYHkBCFC2vEhmfr0zraGz8xGF2Q54mkPDSBwABLL0xREVRFJRI1p3v0YMccsDrb1fpeIXaV/vSD1X+v99/iMlUlR2JSMrMgHbzovV0GCzSRoKa8Lfd+7d8Tj8axNmD+DtALxdgOXxtc2efbVDa6tUdz2sevb18Snflh0uhbc1ck1WTUC90Lr7R17XOrvatyO9dRTtvjw2pnPh/aea03EOBv43EsoBu18yvLPrQtB0sBAn3BEKt/hG5QMATxvQ8Kdm3fuzlBUQrbtfYXbFHJTR2pGHq/YNIzfyG8xe6PYfp2WdtfN8IfY+2hpX2LYeT/rZ/Ehhna4Q157m8sEXimjLYoCz2SQ7grur0cD+jR3943ME1RoL+9ucdcdahelvOem+CN3+Y5UlzyV1i6rbH1RYdsOx9C1CB/2ZcNyGL+A5YwBPe2K33n2DUkXcUE86jtsk1D9+Me4PHnyhFTbDNEQKP6mokViCUc+9u0DK7tyXslq1fwjkeD/LJhTWvDNb/RMmzO7wMRfwY6Es3ihwFAQEVo8v0BMtmDsfsg9ucUAqNolUbBJITkDo/yiJBPc/2Sj+TROn7x/9wZ1Izc0XEhL9jiGJfRX+uMUW3FJRI4NDTDsvJPSg0uC25XDfDQA4sble2xqSquFHOwZRl00M76yodZ/ZNj5iTVacYcK8WuAMKPdmYr9h6s6fKLztNmdHTtDIibL0hYHmCbuabkwrob4QWPqiSEWNERwEBuKfqcgmm60uaNfFcSk5bjFeXAK3KWj79j3ZkXRTUZS/AwAOPNua6u2LN7DZfMLwztzmktPbIv+IdcvqcbEcNm3cPTG+4H7YA2+LzZmRi7B9oPtGU5QkK1xGjk3TiAXsWX887kCL9tCNKrDv5y3DEdzDdo417s5LZXCnZR372s9PvXINU4HhPTrse9IMGRVvoKhAxs5sC3/UBpXHnLHxDaJldjptm0qWPC8RAxAAHGOS2/a5P5hlGxDOBJZh1wyk3iGpDSYbdIl8PuxnPv7v7nRcmFIZ3P1/OfNqg3Z8OpPBwPAe2bXuK0eNaF3cpGJT5MIb+OObkQspuSHmvsO6fU2v7Vjk0V6/9V99we9tSy7ciq9rsH2Ttz3Btm+7NznSXuseledkmrYtYo+U7ssrQv7x/adPhu3V0tawjKnB8B4ZPqyJmqDadipytdMT0JRZtnxGfCXJazOYh9gFoNX3vtGbUmZaQ3gomkviWX+9/OH4EblNex99Peb3Hnj2La2tUm05ximQGN7DniBRjkoOZOw17aE1lUtTdPdPNah5Y+bXz8S1WEdecoU4f4La3hkAQP6kYduztj1PErz4aE9z6Ug/q8KGbM9l29ukRC9m6boIRvxh9IMXW/kjKMN7+GL76G+j14SKrysNW3uqf/wCev0tJGXLnOHm0Iy63B3reuDtsCk0m1JTw7KSGDmgfFVR8gGhtq/H/b3Nh9uTraH2vT6kP2Za3vxRV0b8xyZSl0QGOMN7eDTtj/6YdMlNTQCgHed9D+fU3af46N+boZavl8cN38uV8lXxz/RjduRGPxtyU3cLncwcn0Zu0oNsS0WN2E+0EGd+HvtdRyoOf7qDO6Qb4bQvdAxH7TloGW0NhanermwPcIZ3sidl+9m4fv3SpgOGbY+IE5tNrVuteP/nltZWKVR9fb7n3FsiSzeJTLw5sccF7X6oS+UIfJpEuRJHamqKajff9MidBk3Pvl6cVJPFrY+nbKq5lFxsOi/kpmU/ZXGA8/H4ZPU0OQDEXM2UifMsra2yf+PVX54lM77aoC2flEnxdf5JBV5MshSKTWtCKq/lyVSereAnjxKcqiymR8mdY0bkaSXTv9gS03kS6fP5E05gBP2qLFMWpWQ0xViHB2DNm2II7+ab46op7H1cYzlBZcZXGwBgILiHoDYsQ1fW9ezrkVPT8pqhNeg0NZ8k0B1xSPbPpX2FQ7KcDAjCbA1zhneyNYGyZfHNx9g7godz1hSWAa/NY/uWp9OmvSOF22U3YYP9Hb12XxrSu1SZtKAzk8qJnvqfmXF/pu1ULojhnbaTsuFPs1IaJPA/Np+etbV52UzdouyaIyxvxAZ4uerOlNakfLXvKNlr9drW3iR/0pDOmKRtDRk24JPEfwfZeiLmx/SzsfbN8E6W2R1nx2n7gJSC0oRrnnrlyEzds14TqlmbXdC6B+MqBHrmtavCb4TYXcSujvjSZztiruXqgV/eHlPBVZvstWlX15Zj49Jx+kRcd0eBI5OKiVzztfhHMju5tZcBw/BOH0/n8fhKq33bRKKTHWjHp+Nx+D9OoieJCVty4mtqlau/dD78fon+XIjMuvtExNemLA5JWr20ryzsm9uO7AIArVtt2da+be6Iog6BWnxtTCP0xfXkY7TlFU7xsnARwzudLtVfG+cnYujeoNCmAzlxBXdPsxMHX2oGvJGDKpZeG2b3sO9SbdyTG+ai12tTs06+mSHK/klfU9bopd1NZcOyXPY2YXin5HawouZwXB8oWxbbjzBHfhPfLeP7T3tgdgJWlAyLZUAmsyemeSq1tsrwDxqUUGjqyT9E/JyU3ha67YYzNwXHyr72vT18s1E8TVkxzXSTCQG097FPR9TFpP1MVuUZwzv5WkB8HYXHzY5tOD41obX3qdZWXR+99nPZoXUPKLydgCPPN2FC5NppjBtlQeseiB4uJbf0Nd4nOFCQxPdbgTgvhP1358CT9LbrHOO2D6nbnpidFeXkzKs5aV+IGDOQRRjeyZsc1/k1ab4Z+7MTCgARa/Z6sX4m9j7m7e8lcuO/lERfeByVVzWh9dXXh7lYXa871imaD/bVZhObrSXOPuUyYW7YVJVFGwL6cdtnt33t20zJBMvRatZBU5nllZwYBRUUTf7OQYrTvZ5SNK2B4U3x3IqfjPtDxXNK4io8O9aonnnNCCk8R//zZH9giRNSfF3UTuSy5FmJ66G77rOHtasxOMCN3MMwO/qXmYS47li041yUOwodkadzakIvzRJ4jD6hbRAjvcNMlsxdnG3Zw8fjh8PUJa1oORr7+81u4NSfTd/j0hKmhimQpS/GlspGLmD1xFz7xr4nD+vuR31zZVqeQXNXJvHk48xvXIrvTC0Q26q1eqE71mrgpM2Rat9at1ojNiNF+G0gkUezR3rbtuRPOBHLY/jJbodMX3EkoQtgd9NYyZ/YZrceMvf7O7MtRljzHo4CM3mhlfiwExoaxgt+UhTzspc8F9+C1QJ6L/suICEP8Qzd6SN5JVbkMN40cEcR64TMzsLoF4Hta9ijIZV3IZ/tSmwQmb2P9TfLacux8M8UlC66LRv3KcN7uNzwzyl56EOWPC9SODW+R6nFkaJxTKLUvMuWrUi4oHddDK76xjnIYGxt1jY9b7QnYu07ZRekETBB8ZCthyMv+bFaPngx7FOaMuc7exneFH/Q1FYtTKjATJzXhsm3JVdjmHHX5ISWvfQlgVGUZIk3IEt/Ebm7X/mqNxP+6oLJwT/qxtT3XAsDmztsnxRVm1F1JVdHeuiOpgCXSZ9vTKKM6VDPaM/wzgZjyz9O+IT+3L17MbY8sam1SheVyIy7LiW87MUbBJKTRA3cptNG4+6ob9D3N9g84OEvqzljgAXrC2IIn66Bbn4KqCd6gEftEiiQJc8ZaQ27EdhFMJ1BqK3HUzvI1KQFRdkc3AzvVJzw837UluTnL6LkxmnxFjKZ852khyeUpS+ILN0kgX2lY+Isgt0UbFJ6e/SBnuY/FH2gogXr50lFjcgdG0QKp3THtl82BfemUU/YJhStW60xt42nKexGahfBdAWijJud0nFK5PrvdmZ79jC8R0KBmfuDc5i10mHftitA2fJZKV/+omd8oRfLNGjOMf7329S0knycXAqnHEwsfDYJxNE7EOIKrbtftW61at19qnX3R+5lAvHVuuOYxzPiRLkpCMhY58McjgAf6lpv4FyW2V7j7i+K3AVJ3g427imW0ttakj45py23AIiee1tw+VAxOs42w+zx/biYP8kh89f57/M3palw+AJLt//YF25Grm+sD7PH96c/8GTRhtgKjuUZtlHxZOlLeVpb5YAYXl8gW/6eMorwvQ0FcBYA3q6EJ2DuCxTboWVHSfBIRY1o9+US7H308nCvP8Oa4Z2eEysFwR30fWXLFMAVDNMUVnF3JYz0PUXTPFr/ZAG6LnSF3u/lDEWBNwGI1lY5pKLG1Noq/4SWAjiKALMDEEOh5s1SsenQSA2a4Zz2S/InNGMETaVGDO/UFZyy5bOAGu6oSPtv4U+7AYhuf1CDJl2e9relwAtDdQxN/5/GaD4Pg+72mg8XSskNnTzDGN4UqUnk9F8cOP2XyIWqfGUD91IMFj46AWdfz5fZ9/jH/uYFL6kwZ3AT+INl9EIy4y5zqG6PM3o/5pU0DwQ3ETG8h8vMb5RwJxDFePFmRSct2GwSw4mnF/dNgrfTK1dVXOFtPxGDm+E9Wk7AyQsucS8QDU8wa09z+WgY93yosdmEiEY2NU9yJzC8iWiU1dwlfxKH52V4ExExvIlG192321Woblce9wQxvCm20OhozgEA3fbs9JDX2pucundroe77Q6FeOhk0YL2e2BXTbNjqdqm6XaoXT/TP5K7HdxjaUB/xtlR3/S7usUe0od7Q3S9HfLZd25tyYlrPD7c5Bv27qVse0v7Xm04Hz9f53n8VqnutqttlRv3+A6/MDFhG8L50r1WIdADoVvfaqLfh2to4LD/kq9s1EQC08fiwlEvd/XLCw7bqlnWqWx5SPb6DvUuGCHubDAEpKvGo2+VF22cOdbsgldUDJ/i2jR6IAThygRM7gcCxJOq3nAp8v25eo3DkQFY+LYGBiIp/MnDlU+DtX1nqdjmlstrEvt+bKF9cDKC1L7yk0je3o25Zpzh/BOp2oW9OzMB1UrdLIQJZNWguyL2bTajl/xyAaTeVyJJ7B4am/b8NXnW7LgMoAuCUympHYOHGdRU5GDcVqHd7dctDZbJqg+/BnZwCA56uIqms9j85WB28Ay8c6pDKalG3y1C3S4P2X6CP3z2JOXcWor0FOPxmp+5+uUhu/7bvO0Ugq8KPhqgfbCvEx293QC1AFTKuVAZfdPrnDp18rVOWfa//IqKb16jc86z0vW/QfuyEOAqgFvr2ff9rWx/W4OO4ViGAul2Q0tkSuN8Gr7dufUhh+cYpC/negHUIXLfgbQEG70N1r1Wc3gfd+hBg5EC++YSEXlzWtgE6JvSzrv51VLfZBmAsSz1r3qO/1v3RG7n+AuWUymoJKtxH3xYAkJVPi9z9M7GdGEEEMD2h/zZlDpAbOsuULPyWL7hPBk+MIKueEbn7cYHhgFRulEGB45HKapFVG0XdrtAZC6bcUNC/HWc/aNbWxsBmCAuQO6SyOg/AxL7Pq9tVCIhvHU2P74Kh5sWBT3kBoMNXa17bGaFWKgDUH+L5YV4v8C+jG1PKfeN/T7+5K3A/9dcOf/9IcM376F87MP/uElkVvC/6w27+N0uw6hkHVqzOQeMnIePJ6maXBtwtBX6+ACufzsfKp/P1j+uDl2l6g2qtuHpeEVQnhVaoFHro9auC1mfe34/DqmdKseKBMt0cZa5Nw4B+9E5eYOhLZbVgxgJHyN2H/+ImKzcITE/+4Nd1yzqVyo1jcet3cnRL8Gv+Y2L5/5/BzfDOkFr3jSsiDkIvn1sWXIAsE/rmpvFB/7bgW0V9TQEhwXLotRlQBbaus7Dv95Y/VM3+UO9bzqzbNdLE6+p2GVHuxtQfmv6/WZA7vzswMYLhhIwrDZzssUsqN37iL8RXAHT7/78TagIfbvNg/589suoZkcrqgfTyeoA5f1MkldWCO/4hZIYZ/3ZbfXcRUlndHeY9vqA+9KqF/X+0MPfL10rZjQMbbZpA3thpuP3bhnzrKQneLgVKpocfHVIVKJnWIiIWxl9lQoyQgJR7qqW/Rlt+hwYFokiPGI4eeAefBhocnIv+sVMqq5v6j1/A8mXuF88HrU/xVI+IXJSSaechBvTC0fEAoK89n9dXq/e/VzH9Bivw+AEASqaFjhVoWdCmU3m+i/uGnsD109deyBk4l+Z5oaHnklRWG+p2WfrmJgdLPcM7M2reDXt9t5NNp/qrxtp4LN9fSzMAgZ49ZGh7k8CRCxRP7Q0q3/ljvRFH5bSscxADg2v0MbMsSGW1FSbQfe3LIoZUVgfXwN75TS4A6JG/5sDyQtsuBraTFqjblRsQjI6g0Flyb46s2iDqdql+/K4RGGQy7+86AUBmfP58XxACgNZvNfoCXCqrxwa+FnoRUmDm4kIsq8rBoVeP6b4/OYLC8qYvQWbMV208MR5BsycLcGJ3XqS7HZl4jS+YxQi9CPqDLOTC+sG2fKhCu1ry9PyRvKjTrllm4HYUhtxZDV6fyeXdQftu6ud8TVfOvAl9d3LqdnUDaJdxpZ7AdVW3S3HgFTM0gBUy8ZqeoH3S939fetATbf0DmmIMXD7tjatyE6274MLHJvIJTbZ5D1/Ne+atqjt/V4S/1nT0tzE78/L9tTRL3WuBnb/1FSZnHuTWyqBmA5l2U29fSdKO5hz85amB127+ile3rAu/XF+zhw6qvQaEy6uFOPJG+M/2tZmG+4Gw8XCPul3AR28Ct9xVJGMnD1xsrllYhFP1Pf7PdvmbTwZCqKcj4DYb2p8QYvja88UInVuy7VKRul2tkbYjpCo7ocwrk2Z49bXnHTheawYuA3s2f6rutcDb/xYcisu/X4C3ftXV35afW2jIN36mAU0CClVfcIZZvrpdBpb/UPHWLwOPTbduXgO88kQ3xACm3zLox0AZ3OwwcMHaVp0nX3H1Rjo2kdZHvvDD833bIJXV+ep2hWuCyvUlteEZfFHob4IRCWlLx8SZRbrZpTAckFXBE3IENJskVIkIN/SyL7Q5DEXU/Tbqa7bR2vwADP7BhkbJcXW7ZHCtfwiWWQjAK5XVvaNpvTPquH+2w5Apiy3mAmveNFprFcMQgAO9XUbXemfUcU9BcGcLtnkTETG8iYiI4U1ERAxvIiKGNxERMbyJiIjhTUTE8CYiIoY3ERExvImIGN5ERMTwJiIaWnaDUjG8eSCJaBTKlJFGjWw4EAxwIta6WfPmQSUilvHhr7hmxEHraHbif3/uybbbJiKKL7QzqexLNh5AIspODG8GOBExuIdVZrV5f+0n7PpIRBkf3BkX3lJUwpo3EWV8cAMZ1mzSh80nRJTJwZ2x4c0QJ6JM71WWFV3mGOJEDG2GN0OciBjYREREREREREREREREREREREREREREREREREREREREREREREREREREREREREREREREREREREREREREREREREREREREREQUo/8HHf7axaL/K7EAAAAASUVORK5CYII=;" vertex="1" parent="1">
          <mxGeometry x="-1761.6100000000001" y="-280" width="1203.22" height="563.91" as="geometry" />
        </mxCell>
      </root>
    </mxGraphModel>
  </diagram>
</mxfile>
